<?xml version="1.0" encoding="UTF-8"?>
<svg id="Calque_1" xmlns="http://www.w3.org/2000/svg" viewBox="0 0 16.41 16">
  <defs>
    <style>
      .cls-1 {
        fill: #111a21;
      }
    </style>
  </defs>
  <path class="cls-1" d="M11.71,6.93c-.38-.02-.73.18-.91.52-.08.16-.13.32-.15.49h1.44c.18,0,.31,0,.39,0,.05,0,.11-.02.16-.06v-.07c0-.09-.01-.17-.04-.25-.12-.38-.48-.64-.89-.63"/>
  <path class="cls-1" d="M5.84,7.13c-.07-.21-.13-.42-.2-.63-.07-.21-.13-.41-.18-.61-.06-.19-.1-.37-.15-.53h-.01c-.06.29-.14.59-.23.88-.1.33-.21.67-.32,1.01-.09.35-.2.67-.3.96h1.74c-.04-.14-.1-.32-.16-.49-.06-.18-.12-.38-.18-.59"/>
  <path class="cls-1" d="M14.06,8.56c-.01.13-.02.23-.03.29,0,.05-.05.09-.1.09-.04,0-.12,0-.23.01-.11.01-.24.02-.4.02s-.32-.03-.5-.03h-2.17c.03.21.1.42.21.61.12.18.29.33.5.41.27.12.57.18.88.17.24,0,.48-.03.71-.08.21-.03.42-.08.61-.16.03-.03.05-.01.05.06v1.05s0,.05-.01.08c-.01.02-.03.03-.05.05-.22.1-.44.16-.68.21-.32.06-.64.09-.97.08-.52,0-.96-.08-1.31-.24-.33-.14-.63-.37-.86-.65-.22-.27-.38-.57-.47-.89-.1-.32-.14-.66-.14-1,0-.37.06-.73.17-1.09.11-.34.28-.66.51-.94.23-.27.51-.49.83-.65.32-.16.7-.21,1.14-.21.36,0,.72.06,1.06.21.28.12.53.31.72.55.18.23.32.49.41.78.09.27.13.55.13.83,0,.16,0,.31-.01.44M8.69,11.29h-1.43s-.1-.03-.11-.08l-.56-1.64h-2.54l-.52,1.61c-.01.06-.07.1-.13.1h-1.28c-.08,0-.1-.04-.08-.12l2.2-6.31c.02-.07.04-.13.07-.21.03-.14.04-.29.04-.45,0-.03.02-.07.06-.08h1.77s.08.02.09.06l2.5,7.01c.02.08,0,.11-.07.11M13.5,0H2.91C1.3,0,0,1.3,0,2.91v10.19c0,1.61,1.3,2.91,2.91,2.91h10.6c1.61,0,2.91-1.3,2.91-2.91V2.91c0-1.61-1.3-2.91-2.91-2.91"/>
</svg>