<?xml version="1.0" encoding="UTF-8"?>
<svg id="Calque_1" xmlns="http://www.w3.org/2000/svg" viewBox="0 0 16.41 16">
  <defs>
    <style>
      .cls-1 {
        fill: #111a21;
      }
    </style>
  </defs>
  <path class="cls-1" d="M5.98,6.92c.2,0,.39,0,.58.01.14,0,.27.01.41.04.09-.08.18-.18.24-.29.08-.13.11-.27.11-.42,0-.18-.06-.36-.16-.51-.11-.13-.25-.23-.41-.28-.23-.07-.46-.1-.7-.09h-.32c-.09,0-.16,0-.23,0-.07,0-.15,0-.24,0v1.52h.72Z"/>
  <path class="cls-1" d="M6.88,8.27c-.1-.03-.2-.04-.3-.05-.14-.01-.27-.02-.4-.02h-.92v1.83c.12,0,.22.01.35.01.12,0,.27,0,.45,0,.27,0,.54-.03.8-.1.2-.05.38-.16.52-.31.13-.14.2-.33.21-.52,0-.19-.07-.37-.18-.52-.1-.14-.27-.27-.53-.33"/>
  <path class="cls-1" d="M13.39,5.85v1.31c0,.05-.03.08-.11.08-.23-.01-.47,0-.7.05-.2.04-.39.1-.57.18-.15.06-.29.14-.4.25v3.47c0,.07-.03.1-.09.1h-1.3c-.05,0-.1-.03-.11-.08v-3.79c0-.16,0-.33,0-.51,0-.18,0-.35-.01-.53,0-.16-.02-.32-.04-.48,0-.03.01-.07.05-.08h1.23c.07,0,.12.05.14.11.03.05.05.1.06.16.01.07.03.14.03.21,0,.08.01.18.01.27.21-.25.45-.46.73-.62.29-.16.61-.2.99-.2.05,0,.09.03.1.08v.03ZM8.77,10.26c-.25.33-.6.6-1.06.79-.53.21-1.08.31-1.65.29h-.72c-.23,0-.42,0-.62,0-.19,0-.36,0-.51-.01-.14,0-.27,0-.37,0-.05,0-.08-.03-.08-.09v-6.99c0-.07.01-.1.06-.11.12,0,.32-.01.57-.01.26,0,.51,0,.81-.01.3,0,.57,0,.83,0,.6,0,1.1.04,1.45.18.36.13.63.3.82.5.18.18.32.4.4.64.06.2.09.4.09.61s-.05.44-.13.64c-.06.17-.15.33-.27.47-.08.11-.18.2-.29.27.16.08.3.18.44.3.17.15.31.34.41.55.13.26.2.55.19.83,0,.42-.13.84-.38,1.18M13.5,0H2.91C1.3,0,0,1.3,0,2.91v10.19c0,1.61,1.3,2.91,2.91,2.91h10.6c1.61,0,2.91-1.3,2.91-2.91V2.91c0-1.61-1.3-2.91-2.91-2.91"/>
</svg>