<?xml version="1.0" encoding="UTF-8"?>
<svg id="Calque_1" xmlns="http://www.w3.org/2000/svg" viewBox="0 0 16.41 16">
  <defs>
    <style>
      .cls-1 {
        fill: #111a21;
      }
    </style>
  </defs>
  <path class="cls-1" d="M10.16,6.99c-.27,0-.53.05-.77.18-.23.12-.43.29-.58.51-.15.22-.23.51-.23.87,0,.24.03.48.12.7.07.18.17.35.31.49.13.12.29.22.47.27.18.06.38.09.57.09.1,0,.2,0,.29-.01.09,0,.17,0,.25-.03v-3.01c-.06-.01-.12-.03-.18-.03-.08,0-.15-.01-.23-.01"/>
  <path class="cls-1" d="M12.07,10.99c-.36.15-.73.26-1.11.33-.34.06-.7.1-1.05.1-.51,0-1.01-.1-1.47-.31-.43-.2-.79-.53-1.03-.93-.25-.42-.38-.94-.38-1.56,0-.51.12-1,.38-1.44.26-.44.64-.81,1.09-1.06.48-.27,1.05-.4,1.73-.4.03,0,.08,0,.14,0,.06,0,.13,0,.21.01v-2.16s.02-.08.07-.08h1.39s.06.02.07.05h0v6.52c0,.12,0,.26.01.41.01.14.02.28.03.4,0,.05-.02.09-.07.11M5.96,11.2c0,.08-.03.11-.1.11h-1.34c-.06,0-.09-.03-.09-.11v-7.02c0-.06.03-.09.1-.09h1.33s.08.02.09.07c0,0,0,.01,0,.02v7.02ZM13.5,0H2.91C1.3,0,0,1.3,0,2.91v10.19c0,1.61,1.3,2.91,2.91,2.91h10.6c1.61,0,2.91-1.3,2.91-2.91V2.91c0-1.61-1.3-2.91-2.91-2.91"/>
</svg>