<?xml version="1.0" encoding="UTF-8"?>
<svg id="Calque_1" xmlns="http://www.w3.org/2000/svg" viewBox="0 0 16.41 16">
  <defs>
    <style>
      .cls-1 {
        fill: #111a21;
      }
    </style>
  </defs>
  <path class="cls-1" d="M7.2,7.13c-.07-.21-.13-.42-.2-.63-.07-.21-.13-.41-.18-.61-.06-.19-.1-.37-.15-.53h-.01c-.06.29-.14.59-.23.88-.1.33-.21.67-.32,1.01-.1.35-.2.67-.3.96h1.74c-.04-.14-.1-.32-.16-.49-.06-.18-.12-.38-.18-.59"/>
  <path class="cls-1" d="M12.23,5.03c-.16.16-.39.25-.62.24-.23,0-.44-.08-.61-.24-.16-.17-.24-.4-.23-.63,0-.23.08-.45.25-.61.16-.16.38-.24.61-.24.27,0,.47.08.62.24.15.16.23.38.23.61,0,.23-.08.46-.24.63M12.38,11.2c0,.08-.03.11-.09.11h-1.34c-.07,0-.1-.04-.1-.11v-5.27c0-.07.03-.1.09-.1h1.35c.06,0,.09.03.09.1v5.27ZM10.05,11.3h-1.43s-.09-.03-.11-.08l-.56-1.63h-2.54l-.52,1.61c-.01.06-.07.1-.13.1h-1.29c-.08,0-.1-.04-.08-.12l2.2-6.34c.02-.07.04-.14.07-.23.03-.14.04-.29.04-.44,0-.03.02-.07.05-.08h1.77c.05,0,.08.02.09.05l2.5,7.04c.02.08,0,.11-.07.11M13.5,0H2.91C1.3,0,0,1.3,0,2.91v10.19c0,1.61,1.3,2.91,2.91,2.91h10.6c1.61,0,2.91-1.3,2.91-2.91V2.91c0-1.61-1.3-2.91-2.91-2.91"/>
</svg>