<?xml version="1.0" encoding="UTF-8"?>
<svg id="Calque_1" xmlns="http://www.w3.org/2000/svg" xmlns:xlink="http://www.w3.org/1999/xlink" viewBox="0 0 77 333">
  <defs>
    <style>
      .cls-1 {
        fill: none;
      }

      .cls-2 {
        fill: #111a21;
      }

      .cls-3 {
        clip-path: url(#clippath);
      }
    </style>
    <clipPath id="clippath">
      <rect class="cls-1" y="-3.44" width="77" height="336.44"/>
    </clipPath>
  </defs>
  <g class="cls-3">
    <path class="cls-2" d="M63.29,333h13.71v-9.12c-3.2,4.35-7.63,8.38-13.71,9.12"/>
    <path class="cls-2" d="M67.04,319.33c-.87,2.61-1.87,5.59-1.87,6.71,0,2.11,1,2.61,2.25,2.61,3.31,0,7.47-5.02,9.58-8.3v-30.52c-.82,3.87-2.72,9.08-4.34,13.72l-5.62,15.78Z"/>
    <path class="cls-2" d="M62.55,286.52c.75-2.24,1.37-3.85,1.37-5.47s-1.5-1.86-2.62-1.86c-4.6,0-11.98,8.76-17.53,15.21-.81.94-2.75,3.15-4.35,5.03l-11.6,33.56h31.79c-5.56-.75-8.68-5.22-8.68-10.31,0-2.36,1.13-5.1,1.75-7.08l9.86-29.08Z"/>
    <path class="cls-2" d="M44.56,290.58c5.1-6.18,11.89-14.36,21.23-14.36,6.13,0,10,2.75,11.2,7.22v-92.7l-35.9,103.86c1.36-1.58,2.85-3.27,3.46-4.01"/>
    <path class="cls-2" d="M47.07,270.71c-9.37,7.31-16.53,9.84-26.2,9.84C9.08,280.55,1.23,272.22,0,262.68v70.32h25.54l21.53-62.29Z"/>
    <path class="cls-2" d="M36.13,225.66c6.63.43,14.9,3.08,14.32,12.04-.26,4.01-3.87,8.39-9.32,8.04-4.14-.27-7.36-3.78-7.05-8.62.44-6.83,6.74-6.31,6.8-7.73.16-1.23-.29-2.32-4.78-2.2-14.03.11-22.29,36.55-22.56,40.67-.37,5.77,3.18,10.62,8.63,10.73,8.67.17,18.55-4.14,26.47-12.46l28.35-82.01V-3.44H0v260.76c2.1-19.82,21.09-32.62,36.13-31.66"/>
  </g>
</svg>