<?xml version="1.0" encoding="UTF-8"?>
<svg id="Calque_1" xmlns="http://www.w3.org/2000/svg" viewBox="0 0 16.41 16">
  <defs>
    <style>
      .cls-1 {
        fill: #111a21;
      }
    </style>
  </defs>
  <path class="cls-1" d="M14.48,9.04c0,.08-.07.14-.16.15-.35.03-.71.05-1.06.04h-1.79c0,.32.12.63.34.87.22.23.55.34,1.01.34.39,0,.77-.07,1.13-.21.01,0,.03-.02.05-.02.03,0,.06,0,.09.01.02.02.04.04.05.06,0,.02,0,.04,0,.06v.73c0,.07-.03.14-.09.19h0s-.01.01-.01.01c-.47.19-.97.28-1.47.27-.86,0-1.5-.24-1.92-.73h0c-.4-.49-.6-1.1-.6-1.82s.21-1.38.63-1.89c.43-.52,1.02-.77,1.75-.77.7,0,1.23.21,1.58.64.35.42.53.94.52,1.48,0,.2,0,.4-.04.6M9.57,11.41s-.08.05-.13.05h-1.13s-.08-.01-.12-.04c-.03-.03-.05-.07-.05-.11-.04-2.22-.06-3.87-.06-4.97-.23.83-.7,2.5-1.4,4.99h0s0,.01,0,.01c-.01.04-.04.07-.07.09-.03.02-.07.03-.11.03h-.87s-.08-.01-.11-.03c-.03-.02-.06-.05-.07-.09h0s0-.01,0-.01c-.7-2.49-1.17-4.15-1.4-4.99,0,1.1-.01,2.75-.06,4.97,0,.04-.02.09-.05.11-.03.03-.08.04-.12.04h-1.13s-.09-.01-.13-.05c-.03-.03-.05-.08-.04-.13l.28-6.47h0s.03-.08.06-.1c.03-.02.06-.03.1-.03h1.57s.07,0,.1.03c.03.02.05.05.06.09h0c.05.17.28.94.7,2.31h0c.34,1.15.57,1.94.68,2.36.11-.42.33-1.2.68-2.36.42-1.37.65-2.14.7-2.31h0s0,0,0,0c0-.03.03-.06.06-.09.03-.02.07-.03.1-.03h1.57s.07,0,.1.03c.03.02.05.05.06.09h0s.28,6.48.28,6.48c0,.05,0,.09-.04.13M13.85,0H2.56C1.15,0,0,1.12,0,2.5v11c0,1.38,1.15,2.5,2.56,2.5h11.28c1.42,0,2.56-1.12,2.56-2.5V2.5c0-1.38-1.15-2.5-2.56-2.5"/>
  <path class="cls-1" d="M12.39,7.32c-.24-.01-.48.09-.63.29-.15.2-.24.44-.27.68h1.26c.15,0,.26,0,.34,0,.03,0,.06,0,.08,0,0-.02,0-.04,0-.07,0-.22-.06-.45-.19-.63-.12-.17-.31-.26-.59-.26"/>
</svg>