<?xml version="1.0" encoding="UTF-8"?>
<svg id="Calque_1" xmlns="http://www.w3.org/2000/svg" viewBox="0 0 16.41 16">
  <defs>
    <style>
      .cls-1 {
        fill: #111a21;
      }
    </style>
  </defs>
  <path class="cls-1" d="M13.32,7.14c0,.06-.03.08-.11.08-.25,0-.5.01-.74.07-.2.04-.39.1-.57.18-.13.06-.25.14-.35.25v3.49c0,.07-.03.1-.09.1h-1.35c-.06,0-.1-.03-.11-.08v-3.82c0-.16,0-.33,0-.51,0-.18,0-.35-.01-.53,0-.16-.01-.31-.03-.47,0-.03.01-.07.05-.08,0,0,.01,0,.02,0h1.2c.07,0,.12.05.14.11.02.06.03.11.04.17.01.07.03.14.03.21,0,.08.01.16.01.25.21-.24.45-.44.73-.59.31-.18.68-.27,1.04-.27.05,0,.09.03.1.08v1.36ZM8.66,7.97c-.27.38-.66.67-1.1.83-.47.17-.98.23-1.54.23-.16,0-.27,0-.34,0-.07,0-.16,0-.29,0v2.19s-.03.09-.08.1h-1.33c-.05,0-.08-.03-.08-.09v-7.04s.02-.08.07-.08c.12,0,.23,0,.38,0,.16,0,.33,0,.52-.01.18,0,.38,0,.6-.01.21,0,.42,0,.62,0,.56,0,1.03.07,1.41.21.34.12.66.31.92.56.22.22.39.49.5.78.1.29.16.58.16.89,0,.59-.14,1.07-.41,1.46M13.5,0H2.91C1.3,0,0,1.3,0,2.91v10.19c0,1.61,1.3,2.91,2.91,2.91h10.6c1.61,0,2.91-1.3,2.91-2.91V2.91c0-1.61-1.3-2.91-2.91-2.91"/>
  <path class="cls-1" d="M6.94,5.55c-.25-.1-.53-.14-.81-.14-.18,0-.33,0-.46,0-.14,0-.23,0-.28,0v2.3c.1,0,.18.01.27.01h.36c.27,0,.53-.04.79-.12.22-.06.41-.19.56-.36.14-.17.21-.4.21-.7,0-.21-.05-.42-.16-.61-.12-.18-.28-.32-.48-.39"/>
</svg>