<?xml version="1.0" encoding="UTF-8"?>
<svg id="Calque_1" xmlns="http://www.w3.org/2000/svg" viewBox="0 0 16.41 16">
  <defs>
    <style>
      .cls-1 {
        fill: #111a21;
      }
    </style>
  </defs>
  <path class="cls-1" d="M13.3,10.63c-.19.27-.46.49-.77.61-.33.14-.74.22-1.24.22-.32,0-.62-.03-.93-.09-.24-.04-.48-.12-.7-.22-.05-.03-.08-.08-.08-.13v-1.19s0-.05.03-.06c.02-.01.04,0,.06,0,.27.16.55.27.85.33.26.07.53.1.81.1s.44-.03.57-.09c.11-.05.18-.16.18-.29,0-.09-.05-.18-.16-.27-.11-.09-.34-.19-.67-.32-.35-.12-.67-.29-.97-.49-.21-.15-.39-.35-.52-.58-.11-.22-.16-.46-.16-.7,0-.29.08-.57.23-.83.17-.27.42-.49.72-.63.32-.16.72-.24,1.21-.24.28,0,.57.02.85.06.2.03.4.08.59.16.03,0,.05.03.07.06,0,.03.01.06.01.08v1.11s-.01.06-.03.07c-.06.01-.09.01-.12,0-.2-.11-.42-.18-.66-.23-.25-.05-.51-.09-.77-.09-.14,0-.28.01-.41.05-.09.02-.16.07-.21.14-.03.05-.05.12-.05.18s.03.12.07.18c.06.08.14.14.23.18.16.08.32.16.49.23.37.12.72.29,1.05.5.23.14.41.33.54.57.11.22.16.46.16.7,0,.32-.09.64-.27.91M8.45,7.97c-.27.38-.66.67-1.1.83-.47.17-.98.23-1.54.23-.16,0-.27,0-.34,0-.07,0-.16,0-.29,0v2.19s-.03.09-.08.1h-1.33c-.06,0-.08-.03-.08-.09v-7.04s.02-.08.07-.08c.12,0,.23,0,.38,0,.16,0,.33,0,.52-.01.18,0,.38,0,.59-.01.21,0,.42,0,.62,0,.56,0,1.03.07,1.41.21.34.12.66.31.92.56.22.22.39.49.5.78.1.29.16.58.16.89,0,.59-.14,1.07-.41,1.46M13.5,0H2.91C1.3,0,0,1.3,0,2.91v10.19c0,1.61,1.3,2.91,2.91,2.91h10.6c1.61,0,2.91-1.3,2.91-2.91V2.91c0-1.61-1.3-2.91-2.91-2.91"/>
  <path class="cls-1" d="M6.73,5.55c-.25-.1-.53-.14-.81-.14-.18,0-.33,0-.46,0-.14,0-.23,0-.28,0v2.3c.1,0,.18.01.27.01h.36c.27,0,.53-.04.79-.12.22-.06.41-.19.56-.36.14-.17.21-.4.21-.7,0-.21-.05-.42-.16-.61-.12-.18-.28-.32-.48-.39"/>
</svg>