<?xml version="1.0" encoding="UTF-8"?>
<svg id="Calque_1" xmlns="http://www.w3.org/2000/svg" viewBox="0 0 16.41 16">
  <defs>
    <style>
      .cls-1 {
        fill: #111a21;
      }
    </style>
  </defs>
  <path class="cls-1" d="M12.05,6.99c-.27,0-.53.05-.77.18-.23.12-.43.29-.58.51-.15.22-.23.51-.23.87,0,.24.03.48.12.7.07.18.17.35.31.49.13.12.29.22.47.27.18.06.38.09.57.09.1,0,.2,0,.29-.01.09,0,.16,0,.25-.03v-3.01c-.06-.01-.12-.03-.18-.03-.08,0-.15-.01-.23-.01Z"/>
  <path class="cls-1" d="M13.5,0H2.91C1.3,0,0,1.3,0,2.91v10.19c0,1.61,1.3,2.91,2.91,2.91h10.6c1.61,0,2.91-1.3,2.91-2.91V2.91c0-1.61-1.3-2.91-2.91-2.91ZM8.7,11.28h-1.57c-.11,0-.18,0-.23-.08-.14-.29-.29-.57-.44-.85-.14-.28-.3-.57-.46-.86-.16-.29-.33-.59-.49-.89h-.01c-.14.29-.3.59-.46.88s-.31.59-.47.88c-.16.29-.31.58-.47.86-.03.07-.08.08-.16.08h-1.5s-.05.01-.05-.02c0-.03,0-.06.01-.08l2.13-3.49-2.07-3.51s-.03-.05-.01-.07c.01-.02.04-.03.07-.03h1.55s.07,0,.1.01c.03.01.05.03.07.06.13.29.28.59.44.88.16.29.32.58.49.87.16.29.32.57.46.87h.01c.14-.3.29-.59.44-.88.15-.29.31-.57.46-.86.16-.29.31-.58.46-.86,0-.03.02-.06.04-.07.03-.01.05-.02.09-.01h1.44s.07.01.08.05c0,0,0,.03-.02.05l-2.05,3.38,2.19,3.59s.02.06.01.08c0,.03-.03,0-.08.01ZM13.96,10.99c-.36.15-.73.26-1.12.33-.35.06-.7.1-1.05.1-.51,0-1.01-.1-1.47-.31-.43-.2-.79-.53-1.03-.93-.25-.42-.38-.94-.38-1.56,0-.51.12-1.01.38-1.44.26-.44.64-.81,1.09-1.06.48-.27,1.05-.4,1.73-.4.03,0,.08,0,.14,0,.06,0,.13,0,.21.01v-2.16s.02-.08.07-.08h1.39s.06.02.07.05h0v6.52c0,.12,0,.26.01.41.01.14.02.28.03.4,0,.05-.02.09-.07.11Z"/>
</svg>